<svg xmlns="http://www.w3.org/2000/svg" version="1.1" xmlns:xlink="http://www.w3.org/1999/xlink" xmlns:svgjs="http://svgjs.dev/svgjs" width="1024" height="1024"><svg width="1024" height="1024" viewBox="0 0 1024 1024" fill="none" xmlns="http://www.w3.org/2000/svg">
<g filter="url(#filter0_d_1002_12)">
<path fill-rule="evenodd" clip-rule="evenodd" d="M543.745 125.843C551.668 124.905 558.842 126.697 565.264 131.223C664.871 211.866 764.016 293.078 862.695 374.855C868.462 386.367 866.156 395.845 855.778 403.291C844.597 407.028 834.861 404.722 826.573 396.374C825.036 471.682 824.523 547.007 825.036 622.329C856.964 617.927 880.79 629.712 896.511 657.683C904.764 677.988 903.227 697.458 891.9 716.093C806.106 806.031 702.351 865.721 580.635 895.166C547.55 903.021 514.247 904.558 480.723 899.777C454.919 894.591 429.69 886.868 405.405 876.721L333.161 843.673C328.286 844.699 323.613 846.516 319.327 849.053C295.49 864.305 271.405 879.165 247.082 893.629C234.529 896.447 225.563 892.09 220.183 880.564C188.01 820.832 156.243 760.884 124.882 700.722C122.53 690.32 125.86 682.378 134.873 676.897C171.593 660.594 205.922 640.612 237.86 616.949C249.793 610.345 261.835 603.939 273.982 597.735C275.262 530.61 275.007 463.489 273.213 396.374C262.381 406.594 250.853 407.62 238.628 399.448C233.018 392.398 231.993 384.712 235.554 376.392C307.588 316.136 380.09 256.443 453.055 197.318C483.034 173.177 513.266 149.35 543.745 125.843ZM548.356 171.956C627.732 234.902 706.639 298.438 785.071 362.558C787.12 455.285 787.12 548.047 785.071 640.774C744.322 662.655 704.87 685.969 666.713 710.713C673.37 689.438 666.967 673.298 647.499 662.294L645.962 485.526C636.441 437.576 607.492 410.165 559.116 403.291C500.848 403.096 465.752 431.532 453.824 488.601C453.567 523.963 452.798 559.321 451.518 594.661C406.928 574.433 361.07 570.847 313.947 583.901C312.666 510.116 312.921 436.334 314.715 362.558C393.044 299.576 470.927 236.041 548.356 171.956ZM543.745 440.95C576.995 441.029 598.258 456.913 607.535 488.601C608.303 542.91 608.56 597.22 608.303 651.534C573.042 650.853 538.712 644.96 505.317 633.858C500.585 631.669 496.186 628.823 492.251 625.403C490.762 578.777 491.274 532.109 493.788 485.526C502.133 461.026 518.786 446.167 543.745 440.95ZM356.217 614.644C390.05 612.725 421.305 620.668 449.981 638.469C458.663 645.621 466.878 653.322 474.575 661.525C494.748 672.468 516.267 679.64 539.133 683.045C565.187 686.765 591.318 689.839 617.526 692.268C621.33 692.83 624.986 694.136 628.286 696.11C629.95 697.44 630.205 698.977 629.054 700.722C609.17 720.271 585.345 732.312 557.578 736.844C534.01 741.967 510.44 741.967 486.871 736.844C475.335 734.022 463.807 731.204 452.287 728.39C434.905 732.411 429.782 742.659 436.915 759.132C440.617 762.907 444.971 765.725 449.981 767.586C460.429 771.315 471.253 773.892 482.26 775.272C537.905 781.518 592.729 777.419 646.731 762.975C659.498 759.062 671.853 753.914 683.621 747.604C731.651 715.644 781.428 686.394 832.721 659.988C849.213 658.802 859.459 666.232 863.463 682.276C862.83 687.395 861.038 692.006 858.083 696.11C776.879 777.851 679.785 831.905 566.801 858.275C541.883 863.894 516.776 865.431 491.483 862.887C469.902 858.903 448.785 852.723 428.461 844.441C402.812 833.85 377.678 822.052 353.143 809.088C343.574 805.465 333.84 804.696 323.938 806.782C296.083 758.78 269.431 710.09 244.008 660.757C277.528 635.754 314.932 620.383 356.217 614.644ZM205.58 683.814C207.613 683.552 209.406 684.064 210.96 685.351C236.011 731.099 260.861 776.956 285.51 822.922C273.374 831.98 260.807 840.444 247.851 848.284C221.571 800.34 195.696 752.176 170.227 703.796C181.783 696.74 193.575 690.075 205.58 683.814Z" fill="#012F02"></path>
</g>
<defs>
<filter id="SvgjsFilter1028" x="-4" y="0" width="1032" height="1032" filterUnits="userSpaceOnUse" color-interpolation-filters="sRGB">
<feFlood flood-opacity="0" result="BackgroundImageFix"></feFlood>
<feColorMatrix in="SourceAlpha" type="matrix" values="0 0 0 0 0 0 0 0 0 0 0 0 0 0 0 0 0 0 127 0" result="hardAlpha"></feColorMatrix>
<feOffset dy="4"></feOffset>
<feGaussianBlur stdDeviation="2"></feGaussianBlur>
<feComposite in2="hardAlpha" operator="out"></feComposite>
<feColorMatrix type="matrix" values="0 0 0 0 0 0 0 0 0 0 0 0 0 0 0 0 0 0 0.25 0"></feColorMatrix>
<feBlend mode="normal" in2="BackgroundImageFix" result="effect1_dropShadow_1002_12"></feBlend>
<feBlend mode="normal" in="SourceGraphic" in2="effect1_dropShadow_1002_12" result="shape"></feBlend>
</filter>
</defs>
</svg><style>@media (prefers-color-scheme: light) { :root { filter: none; } }
@media (prefers-color-scheme: dark) { :root { filter: none; } }
</style></svg>